<svg width="393" height="168" viewBox="0 0 393 168" fill="none" xmlns="http://www.w3.org/2000/svg">
  <defs>
    <style>
      @import url('https://fonts.googleapis.com/css2?family=Cormorant+Garamond:wght@300;400&amp;family=Cinzel:wght@400&amp;display=swap');
    </style>
    <linearGradient id="lineGrad" x1="0" y1="0" x2="393" y2="0" gradientUnits="userSpaceOnUse">
      <stop offset="0%"   stop-color="#2d5c38" stop-opacity="0"/>
      <stop offset="35%"  stop-color="#2d5c38" stop-opacity="1"/>
      <stop offset="65%"  stop-color="#2d5c38" stop-opacity="1"/>
      <stop offset="100%" stop-color="#2d5c38" stop-opacity="0"/>
    </linearGradient>
  </defs>

  <rect width="393" height="168" fill="#f5f0e8"/>
  <rect x="0.5" y="0.5" width="392" height="167" stroke="#d8d0bc" stroke-width="1" fill="none"/>
  <rect x="0" y="166" width="393" height="2" fill="url(#lineGrad)"/>

  <g transform="translate(54, 52)">
    <path d="M32 6 C32 6, 52 18, 52 34 C52 46, 43 55, 32 58 C21 55, 12 46, 12 34 C12 18, 32 6, 32 6 Z"
          fill="#2d5c38" fill-opacity="0.09" stroke="#2d5c38" stroke-width="1.5"/>
    <line x1="32" y1="8" x2="32" y2="56" stroke="#2d5c38" stroke-width="0.8" stroke-dasharray="2 3" opacity="0.5"/>
    <path d="M32 22 Q22 28 16 34" stroke="#2d5c38" stroke-width="0.8" opacity="0.5" fill="none"/>
    <path d="M32 22 Q42 28 48 34" stroke="#2d5c38" stroke-width="0.8" opacity="0.5" fill="none"/>
    <path d="M32 33 Q24 37 19 42" stroke="#2d5c38" stroke-width="0.8" opacity="0.5" fill="none"/>
    <path d="M32 33 Q40 37 45 42" stroke="#2d5c38" stroke-width="0.8" opacity="0.5" fill="none"/>
    <circle cx="32" cy="8" r="2.5" fill="#2d5c38" opacity="0.6"/>
    <path d="M28 56 Q32 60 36 56" stroke="#2d5c38" stroke-width="1.2" fill="none" opacity="0.7"/>
  </g>

  <text
    x="136" y="100"
    font-family="Cinzel, 'Palatino Linotype', Georgia, serif"
    font-size="48"
    font-weight="400"
    letter-spacing="10"
    fill="#1a1a1a"
  >LEAF</text>

  <text
    x="137" y="118"
    font-family="'Cormorant Garamond', 'Palatino Linotype', Georgia, serif"
    font-size="13"
    font-weight="300"
    letter-spacing="5"
    fill="#2d5c38"
  >CHESS ENGINE</text>

</svg>
